<?xml version="1.0" encoding="utf-8"?>
<!-- Generator: Adobe Illustrator 27.7.0, SVG Export Plug-In . SVG Version: 6.00 Build 0)  -->
<svg version="1.1" id="Capa_1" xmlns="http://www.w3.org/2000/svg" xmlns:xlink="http://www.w3.org/1999/xlink" x="0px" y="0px"
	 viewBox="0 0 31.7 30.7" style="enable-background:new 0 0 31.7 30.7;" xml:space="preserve">
<style type="text/css">
	.st0{fill-rule:evenodd;clip-rule:evenodd;fill:url(#SVGID_1_);}
</style>
<linearGradient id="SVGID_1_" gradientUnits="userSpaceOnUse" x1="0" y1="16.64" x2="31.7309" y2="16.64" gradientTransform="matrix(1 0 0 -1 0 31.99)">
	<stop  offset="0" style="stop-color:#2BB9D1"/>
	<stop  offset="1" style="stop-color:#8978B6"/>
</linearGradient>
<path class="st0" d="M31.6,4.1c-1.8-1-3.6-1.8-5.6-2.5c-0.2-0.1-0.4,0.1-0.4,0.3c0,0.9,0,1.7,0,2.6c0,0.1,0.1,0.3,0.2,0.3
	c0.9,0.3,1.7,0.7,2.6,1.1c0.1,0.1,0.2,0.2,0.2,0.3c-0.1,0.9-0.2,1.9-0.4,2.8c0,0.1,0,0.3,0.1,0.3c0.8,0.4,1.5,0.9,2.2,1.4
	c0.2,0.1,0.4,0,0.5-0.2c0.5-2,0.7-4,0.8-6.1C31.7,4.3,31.7,4.2,31.6,4.1z M9.3,0.9C9.3,1.7,9.2,2.6,9.2,3.5c0,0.2,0.2,0.3,0.4,0.3
	c4.1-0.9,8.4-0.9,12.5,0c0.2,0,0.4-0.1,0.4-0.3c0-0.8,0-1.7-0.1-2.6c0-0.1-0.1-0.2-0.3-0.3c-4.1-0.8-8.4-0.8-12.5,0
	C9.5,0.6,9.4,0.8,9.3,0.9L9.3,0.9z M0,4.4c0.1,2,0.3,4.1,0.8,6.1c0.1,0.2,0.3,0.3,0.5,0.2C2,10.2,2.7,9.7,3.5,9.3
	C3.6,9.3,3.7,9.1,3.6,9C3.5,8.1,3.3,7.2,3.2,6.2c0-0.1,0.1-0.3,0.2-0.3C4.2,5.5,5.1,5.1,6,4.8c0.1-0.1,0.2-0.2,0.2-0.3
	c0-0.8,0-1.7,0-2.6c0-0.2-0.2-0.4-0.4-0.3C3.8,2.3,1.9,3.1,0.2,4.1C0.1,4.2,0,4.3,0,4.4z M14,22.3c0.5,0.5,1.1,1,1.7,1.5
	c0.1,0.1,0.3,0.1,0.4,0c1.4-1.1,2.6-2.3,3.7-3.7c0.1-0.2,0.1-0.4-0.1-0.5c-0.9-0.3-1.9-0.5-2.9-0.5c-0.1,0-0.2,0-0.2,0.1
	c-0.1,0.1-0.3,0.3-0.4,0.4c-0.1,0.1-0.3,0.1-0.4,0c-0.1-0.1-0.3-0.3-0.4-0.4c-0.1-0.1-0.2-0.1-0.2-0.1c-1,0.1-2,0.2-2.9,0.5
	c-0.2,0.1-0.3,0.3-0.1,0.5C12.6,20.9,13.3,21.6,14,22.3L14,22.3z M9.5,7.6C8.6,7.8,7.7,8.1,6.8,8.4C6.7,8.5,6.6,8.6,6.6,8.8
	c0.6,2.9,1.6,5.6,3.1,8.1c0.1,0.1,0.2,0.2,0.4,0.1c3.7-1.4,7.9-1.4,11.6,0c0.1,0,0.3,0,0.4-0.1c0.4-0.7,0.8-1.4,1.2-2.2
	c0.1-0.2,0-0.4-0.2-0.4c-3.6-1.4-7.7-1.7-11.4-0.9c-0.1,0-0.3,0-0.4-0.2c-0.4-0.8-0.6-1.5-0.9-2.3c-0.1-0.2,0.1-0.4,0.2-0.4
	c4.5-1.1,9.3-0.8,13.6,0.9c0.2,0.1,0.4,0,0.4-0.2c0.2-0.8,0.4-1.6,0.6-2.4c0-0.1-0.1-0.3-0.2-0.4C20.1,6.6,14.6,6.3,9.5,7.6L9.5,7.6
	z M15.7,27c-5.3-3.6-9-8.5-11.1-14.4c-0.1-0.2-0.3-0.3-0.5-0.2c-0.7,0.4-1.4,0.9-2.1,1.5C1.9,14,1.9,14.2,2,14.3
	c2.5,6.8,7.4,12.6,13.7,16.3c0.1,0.1,0.2,0.1,0.3,0c6.3-3.7,11.2-9.5,13.8-16.3c0-0.1,0-0.3-0.1-0.4c-0.7-0.5-1.4-1-2.1-1.5
	c-0.2-0.1-0.4,0-0.5,0.2c-2,5.8-5.9,10.9-11,14.4C15.9,27.1,15.8,27.1,15.7,27L15.7,27z"/>
</svg>
