<?xml version="1.0" encoding="UTF-8"?>
<svg id="Capa_1" data-name="Capa 1" xmlns="http://www.w3.org/2000/svg" xmlns:xlink="http://www.w3.org/1999/xlink" viewBox="0 0 132.33 96.61">
  <defs>
    <style>
      .cls-1 {
        fill: url(#Degradado_sin_nombre_6);
        fill-rule: evenodd;
      }

      .cls-2 {
        fill: #fafafa;
      }
    </style>
    <linearGradient id="Degradado_sin_nombre_6" data-name="Degradado sin nombre 6" x1="32.3" y1="30.7" x2="95.77" y2="30.7" gradientUnits="userSpaceOnUse">
      <stop offset="0" stop-color="#2bb9d1"/>
      <stop offset="1" stop-color="#8978b6"/>
    </linearGradient>
  </defs>
  <g>
    <path class="cls-2" d="m7.25,96.61c-1.6,0-2.93-.23-3.98-.68s-1.86-1.05-2.4-1.79c-.54-.74-.83-1.52-.86-2.35,0-.13.05-.24.16-.35.1-.1.23-.16.37-.16h3.02c.22,0,.4.04.52.12.12.08.23.18.32.31.13.24.31.47.54.7.23.22.54.4.92.54.38.14.85.2,1.39.2.93,0,1.63-.14,2.1-.43.47-.29.71-.68.71-1.18,0-.37-.13-.66-.38-.89-.26-.22-.67-.43-1.24-.61-.57-.18-1.32-.37-2.27-.56-1.22-.26-2.25-.59-3.11-1s-1.51-.94-1.96-1.61-.67-1.49-.67-2.48.28-1.85.83-2.62c.55-.77,1.32-1.37,2.32-1.8.99-.43,2.17-.65,3.53-.65,1.1,0,2.08.14,2.92.43.84.29,1.55.67,2.12,1.15.58.48,1.01.99,1.31,1.52.3.54.45,1.06.47,1.57,0,.13-.04.24-.13.35-.09.1-.21.16-.37.16h-3.17c-.18,0-.33-.03-.46-.1-.13-.06-.24-.17-.34-.31-.1-.35-.35-.66-.76-.92-.41-.26-.94-.4-1.6-.4-.7,0-1.25.12-1.64.37s-.59.63-.59,1.14c0,.32.11.6.32.84.22.24.58.45,1.08.62.5.18,1.2.36,2.08.55,1.46.27,2.63.61,3.53,1.02.9.41,1.56.94,1.98,1.58.42.65.64,1.46.64,2.44,0,1.09-.31,2.02-.94,2.81s-1.48,1.39-2.56,1.81c-1.08.42-2.33.64-3.76.64Z"/>
    <path class="cls-2" d="m20.38,96.61c-.86,0-1.64-.16-2.32-.49-.68-.33-1.22-.77-1.62-1.33-.4-.56-.6-1.19-.6-1.9,0-1.14.46-2.04,1.39-2.7.93-.66,2.16-1.12,3.7-1.36l3-.46v-.34c0-.58-.12-1.02-.36-1.32-.24-.3-.68-.46-1.32-.46-.45,0-.81.09-1.09.26-.28.18-.5.42-.66.72-.14.21-.34.31-.6.31h-2.69c-.18,0-.31-.05-.41-.16-.1-.1-.14-.23-.12-.37,0-.29.11-.62.32-1,.22-.38.55-.75,1-1.12.45-.37,1.02-.67,1.73-.91.7-.24,1.56-.36,2.57-.36s1.9.12,2.64.36c.74.24,1.34.58,1.8,1.01.46.43.8.94,1.02,1.52s.32,1.23.32,1.93v7.3c0,.16-.06.3-.18.42s-.26.18-.42.18h-2.78c-.18,0-.32-.06-.43-.18s-.17-.26-.17-.42v-.84c-.21.3-.49.58-.84.84-.35.26-.76.46-1.24.61-.47.15-1.02.23-1.64.23Zm1.13-2.74c.46,0,.88-.1,1.26-.3s.67-.51.89-.94c.22-.42.32-.96.32-1.6v-.34l-2.04.36c-.75.13-1.3.32-1.64.59-.34.26-.52.57-.52.92,0,.27.08.5.24.7.16.19.37.34.64.44.26.1.55.16.85.16Z"/>
    <path class="cls-2" d="m32.71,96.37c-.16,0-.3-.06-.42-.18-.12-.12-.18-.26-.18-.42v-8.74h-1.82c-.18,0-.32-.06-.43-.17-.11-.11-.17-.26-.17-.43v-1.94c0-.18.06-.32.17-.43.11-.11.26-.17.43-.17h1.82v-.77c0-1.09.21-1.96.64-2.63s1.03-1.14,1.81-1.44c.78-.3,1.72-.44,2.81-.44h1.87c.18,0,.32.06.43.17.11.11.17.26.17.43v1.94c0,.18-.06.32-.17.43-.11.11-.26.17-.43.17h-1.68c-.54,0-.92.13-1.14.38-.22.26-.32.62-.32,1.1v.65h2.9c.18,0,.32.06.43.17.11.11.17.26.17.43v1.94c0,.18-.06.32-.17.43-.11.11-.26.17-.43.17h-2.9v8.74c0,.16-.06.3-.17.42-.11.12-.26.18-.43.18h-2.78Z"/>
    <path class="cls-2" d="m46.92,96.61c-1.89,0-3.39-.51-4.51-1.54-1.12-1.02-1.7-2.54-1.75-4.56v-.84c.05-1.26.33-2.35.85-3.25.52-.9,1.24-1.59,2.16-2.06.92-.47,2-.71,3.23-.71,1.41,0,2.57.28,3.49.84.92.56,1.61,1.32,2.08,2.28.46.96.7,2.06.7,3.29v.58c0,.18-.06.32-.17.43-.11.11-.26.17-.43.17h-7.68v.17c.02.46.1.89.25,1.27.15.38.38.69.67.91.3.22.66.34,1.09.34.32,0,.59-.05.8-.16.22-.1.4-.22.54-.36s.26-.25.34-.35c.14-.18.26-.28.35-.32.09-.04.23-.06.42-.06h2.98c.16,0,.29.05.4.14.1.1.15.22.13.38-.02.27-.15.6-.41.98-.26.38-.63.76-1.12,1.14-.49.38-1.1.68-1.84.92-.74.24-1.59.36-2.57.36Zm-2.04-7.75h4.06v-.05c0-.53-.08-.98-.23-1.36-.15-.38-.38-.67-.7-.88s-.68-.31-1.12-.31-.78.1-1.08.31c-.3.21-.54.5-.7.88-.16.38-.24.83-.24,1.36v.05Z"/>
    <path class="cls-2" d="m67.06,96.61c-1.6,0-2.93-.23-3.98-.68s-1.86-1.05-2.4-1.79c-.54-.74-.83-1.52-.86-2.35,0-.13.05-.24.16-.35.1-.1.23-.16.37-.16h3.02c.22,0,.4.04.52.12.12.08.23.18.32.31.13.24.31.47.54.7.23.22.54.4.92.54.38.14.85.2,1.39.2.93,0,1.63-.14,2.1-.43.47-.29.71-.68.71-1.18,0-.37-.13-.66-.38-.89-.26-.22-.67-.43-1.24-.61-.57-.18-1.32-.37-2.27-.56-1.22-.26-2.25-.59-3.11-1s-1.51-.94-1.96-1.61-.67-1.49-.67-2.48.28-1.85.83-2.62c.55-.77,1.32-1.37,2.32-1.8.99-.43,2.17-.65,3.53-.65,1.1,0,2.08.14,2.92.43.84.29,1.55.67,2.12,1.15.58.48,1.01.99,1.31,1.52.3.54.45,1.06.47,1.57,0,.13-.04.24-.13.35-.09.1-.21.16-.37.16h-3.17c-.18,0-.33-.03-.46-.1-.13-.06-.24-.17-.34-.31-.1-.35-.35-.66-.76-.92-.41-.26-.94-.4-1.6-.4-.7,0-1.25.12-1.64.37s-.59.63-.59,1.14c0,.32.11.6.32.84.22.24.58.45,1.08.62.5.18,1.2.36,2.08.55,1.46.27,2.63.61,3.53,1.02.9.41,1.56.94,1.98,1.58.42.65.64,1.46.64,2.44,0,1.09-.31,2.02-.94,2.81s-1.48,1.39-2.56,1.81c-1.08.42-2.33.64-3.76.64Z"/>
    <path class="cls-2" d="m77.04,96.37c-.18,0-.32-.06-.43-.18-.11-.12-.17-.26-.17-.42v-15.84c0-.18.06-.32.17-.43.11-.11.26-.17.43-.17h3.07c.18,0,.32.06.43.17.11.11.17.26.17.43v5.35c.43-.5.96-.89,1.6-1.19.63-.3,1.36-.44,2.2-.44.93,0,1.75.21,2.48.62.73.42,1.3,1.02,1.72,1.82.42.8.62,1.79.62,2.98v6.7c0,.16-.06.3-.17.42s-.26.18-.43.18h-3.1c-.16,0-.3-.06-.42-.18-.12-.12-.18-.26-.18-.42v-6.55c0-.75-.18-1.33-.54-1.74-.36-.41-.88-.61-1.57-.61s-1.21.2-1.61.61c-.4.41-.6.99-.6,1.74v6.55c0,.16-.06.3-.17.42-.11.12-.26.18-.43.18h-3.07Z"/>
    <path class="cls-2" d="m92.62,82.09c-.18,0-.32-.06-.43-.17s-.17-.26-.17-.43v-2.16c0-.16.06-.3.17-.42.11-.12.26-.18.43-.18h2.88c.16,0,.3.06.42.18s.18.26.18.42v2.16c0,.18-.06.32-.18.43-.12.11-.26.17-.42.17h-2.88Zm.02,14.28c-.18,0-.32-.06-.43-.18-.11-.12-.17-.26-.17-.42v-11.28c0-.18.06-.32.17-.43s.26-.17.43-.17h2.83c.18,0,.32.06.43.17.11.11.17.26.17.43v11.28c0,.16-.06.3-.17.42-.11.12-.26.18-.43.18h-2.83Z"/>
    <path class="cls-2" d="m104.66,96.61c-1.89,0-3.39-.51-4.51-1.54-1.12-1.02-1.7-2.54-1.75-4.56v-.84c.05-1.26.33-2.35.85-3.25.52-.9,1.24-1.59,2.16-2.06.92-.47,2-.71,3.23-.71,1.41,0,2.57.28,3.49.84.92.56,1.61,1.32,2.08,2.28s.7,2.06.7,3.29v.58c0,.18-.06.32-.17.43-.11.11-.26.17-.43.17h-7.68v.17c.02.46.1.89.25,1.27.15.38.38.69.67.91.3.22.66.34,1.09.34.32,0,.59-.05.8-.16.22-.1.4-.22.54-.36.14-.14.26-.25.34-.35.14-.18.26-.28.35-.32s.23-.06.42-.06h2.98c.16,0,.29.05.4.14.1.1.15.22.13.38-.02.27-.15.6-.41.98-.26.38-.63.76-1.12,1.14s-1.1.68-1.84.92c-.74.24-1.59.36-2.57.36Zm-2.04-7.75h4.06v-.05c0-.53-.08-.98-.23-1.36s-.38-.67-.7-.88c-.31-.21-.68-.31-1.12-.31s-.78.1-1.08.31c-.3.21-.54.5-.7.88s-.24.83-.24,1.36v.05Z"/>
    <path class="cls-2" d="m113.76,96.37c-.18,0-.32-.06-.43-.18-.11-.12-.17-.26-.17-.42v-15.84c0-.18.06-.32.17-.43.11-.11.26-.17.43-.17h2.83c.18,0,.32.06.43.17.11.11.17.26.17.43v15.84c0,.16-.06.3-.17.42-.11.12-.26.18-.43.18h-2.83Z"/>
    <path class="cls-2" d="m124.68,96.61c-.77,0-1.46-.12-2.08-.37-.62-.25-1.14-.62-1.58-1.1-.44-.49-.78-1.08-1.02-1.78-.24-.7-.38-1.49-.41-2.39-.02-.32-.02-.6-.02-.85s0-.53.02-.85c.03-.85.17-1.62.41-2.32.24-.7.58-1.29,1.01-1.78.43-.49.96-.86,1.58-1.13s1.32-.4,2.09-.4,1.49.13,2.06.4,1.06.6,1.46,1.02v-5.14c0-.18.06-.32.17-.43.11-.11.26-.17.43-.17h2.93c.16,0,.3.06.42.17s.18.26.18.43v15.84c0,.16-.06.3-.18.42s-.26.18-.42.18h-2.71c-.18,0-.32-.06-.43-.18-.11-.12-.17-.26-.17-.42v-.77c-.38.46-.88.85-1.49,1.15-.61.3-1.36.46-2.26.46Zm1.32-3.22c.53,0,.95-.12,1.26-.35.31-.23.54-.53.7-.9s.24-.77.25-1.2c.02-.32.02-.62.02-.91s0-.58-.02-.89c-.02-.4-.1-.77-.26-1.12-.16-.34-.4-.62-.72-.84-.32-.22-.73-.32-1.22-.32-.53,0-.95.11-1.26.34-.31.22-.54.53-.67.91-.14.38-.22.81-.25,1.27-.05.5-.05.99,0,1.49.03.46.12.89.25,1.27.14.38.36.69.67.91.31.22.73.34,1.26.34Z"/>
  </g>
  <path class="cls-1" d="m95.45,8.28c-3.56-2.02-7.31-3.7-11.19-5-.42-.14-.85.19-.83.64.09,1.71.09,3.42,0,5.13-.01.27.15.52.41.61,1.76.65,3.48,1.37,5.15,2.18.24.12.39.38.36.64-.19,1.87-.48,3.71-.84,5.53-.05.27.07.53.31.67,1.5.83,2.96,1.73,4.36,2.71.37.25.88.07.98-.37.93-3.98,1.47-8.06,1.62-12.15,0-.24-.12-.47-.33-.58ZM50.98,1.8c-.18,1.7-.26,3.41-.24,5.12,0,.4.38.69.77.6,8.22-1.83,16.84-1.83,25.05,0,.39.09.77-.2.77-.6.01-1.71-.07-3.42-.24-5.12-.03-.28-.24-.51-.51-.56-8.24-1.65-16.83-1.65-25.08,0-.27.05-.49.29-.51.56Zm-18.68,7.07c.15,4.09.69,8.16,1.62,12.15.1.43.61.62.98.37,1.41-.97,2.87-1.88,4.36-2.71.24-.13.36-.4.31-.67-.37-1.81-.65-3.66-.84-5.53-.03-.27.12-.53.36-.64,1.67-.81,3.39-1.54,5.15-2.18.26-.09.42-.34.41-.61-.08-1.71-.08-3.42,0-5.13.02-.44-.4-.78-.83-.64-3.88,1.3-7.63,2.98-11.19,5-.21.12-.33.34-.33.58Zm27.99,35.8c1.07,1.03,2.19,2.02,3.35,2.95.23.19.57.19.81,0,2.72-2.19,5.21-4.66,7.43-7.36.28-.35.12-.88-.31-1.01-1.85-.54-3.78-.89-5.77-1.02-.19-.01-.38.06-.51.2-.26.28-.53.56-.8.84-.25.25-.66.25-.9,0-.27-.28-.54-.56-.8-.84-.13-.14-.32-.22-.51-.2-1.99.13-3.92.48-5.77,1.02-.43.13-.59.66-.31,1.01,1.27,1.55,2.63,3.02,4.08,4.41Zm-8.96-29.51c-1.85.47-3.65,1.04-5.41,1.71-.29.11-.46.42-.4.72,1.11,5.74,3.22,11.26,6.2,16.27.16.26.48.37.77.26,7.32-2.79,15.8-2.79,23.13,0,.29.11.61,0,.76-.26.85-1.43,1.63-2.9,2.33-4.41.15-.33,0-.73-.34-.86-7.19-2.86-15.31-3.47-22.86-1.77-.29.07-.59-.08-.71-.35-.69-1.52-1.3-3.08-1.82-4.66-.11-.35.1-.73.46-.82,8.93-2.16,18.57-1.52,27.12,1.85.34.14.73-.05.84-.4.47-1.59.87-3.2,1.19-4.85.06-.3-.11-.61-.4-.72-9.74-3.7-20.73-4.29-30.83-1.71Zm12.34,38.87c-10.59-7.12-18.04-16.91-22.1-28.71-.13-.38-.58-.55-.92-.34-1.46.89-2.88,1.86-4.23,2.91-.22.17-.31.47-.21.73,5.09,13.68,14.83,25.28,27.5,32.7.2.12.45.12.65,0,12.65-7.41,22.41-19.01,27.5-32.7.1-.26.01-.56-.21-.73-1.35-1.05-2.77-2.02-4.23-2.91-.34-.21-.79-.04-.92.34-4.05,11.66-11.84,21.77-22.11,28.71-.22.15-.51.15-.72,0Z"/>
</svg>