<?xml version="1.0" encoding="UTF-8"?>
<svg id="Capa_1" data-name="Capa 1" xmlns="http://www.w3.org/2000/svg" xmlns:xlink="http://www.w3.org/1999/xlink" viewBox="0 0 173.38 30.7">
  <defs>
    <style>
      .cls-1 {
        fill: url(#linear-gradient);
        fill-rule: evenodd;
      }

      .cls-2 {
        fill: #424646;
      }
    </style>
    <linearGradient id="linear-gradient" x1="0" y1="15.35" x2="31.74" y2="15.35" gradientUnits="userSpaceOnUse">
      <stop offset="0" stop-color="#2bb9d1"/>
      <stop offset="1" stop-color="#8978b6"/>
    </linearGradient>
  </defs>
  <g>
    <path class="cls-2" d="m48.29,24.35c-1.6,0-2.93-.23-3.98-.68-1.06-.46-1.86-1.05-2.4-1.79-.54-.74-.83-1.52-.86-2.35,0-.13.05-.24.16-.35.1-.1.23-.16.37-.16h3.02c.22,0,.4.04.52.12.12.08.23.18.32.31.13.24.31.47.54.7.23.22.54.4.92.54.38.14.85.2,1.39.2.93,0,1.63-.14,2.1-.43.47-.29.71-.68.71-1.18,0-.37-.13-.66-.38-.89-.26-.22-.67-.43-1.24-.61-.57-.18-1.32-.37-2.27-.56-1.22-.26-2.25-.59-3.11-1-.86-.41-1.51-.94-1.96-1.61-.45-.66-.67-1.49-.67-2.48s.28-1.85.83-2.62c.55-.77,1.32-1.37,2.32-1.8.99-.43,2.17-.65,3.53-.65,1.1,0,2.08.14,2.92.43.84.29,1.55.67,2.12,1.15.58.48,1.01.99,1.31,1.52.3.54.45,1.06.47,1.57,0,.13-.04.24-.13.35-.09.1-.21.16-.37.16h-3.17c-.18,0-.33-.03-.46-.1-.13-.06-.24-.17-.34-.31-.1-.35-.35-.66-.76-.92s-.94-.4-1.6-.4c-.7,0-1.25.12-1.64.37-.39.25-.59.63-.59,1.14,0,.32.11.6.32.84.22.24.58.45,1.08.62.5.18,1.2.36,2.08.55,1.46.27,2.63.61,3.53,1.02.9.41,1.56.94,1.98,1.58.42.65.64,1.46.64,2.44,0,1.09-.31,2.02-.94,2.81s-1.48,1.39-2.56,1.81c-1.08.42-2.33.64-3.76.64Z"/>
    <path class="cls-2" d="m61.42,24.35c-.86,0-1.64-.16-2.32-.49-.68-.33-1.22-.77-1.62-1.33-.4-.56-.6-1.19-.6-1.9,0-1.14.46-2.03,1.39-2.7.93-.66,2.16-1.12,3.7-1.36l3-.46v-.34c0-.58-.12-1.02-.36-1.32-.24-.3-.68-.46-1.32-.46-.45,0-.81.09-1.09.26-.28.18-.5.42-.66.72-.14.21-.34.31-.6.31h-2.69c-.18,0-.31-.05-.41-.16-.1-.1-.14-.23-.12-.37,0-.29.11-.62.32-1,.22-.38.55-.75,1-1.12.45-.37,1.02-.67,1.73-.91.7-.24,1.56-.36,2.57-.36s1.9.12,2.64.36c.74.24,1.33.58,1.8,1.01.46.43.8.94,1.02,1.52.22.58.32,1.23.32,1.93v7.3c0,.16-.06.3-.18.42s-.26.18-.42.18h-2.78c-.18,0-.32-.06-.43-.18-.11-.12-.17-.26-.17-.42v-.84c-.21.3-.49.58-.84.84s-.76.46-1.24.61c-.47.15-1.02.23-1.64.23Zm1.13-2.74c.46,0,.88-.1,1.26-.3s.67-.51.89-.94c.22-.42.32-.96.32-1.6v-.34l-2.04.36c-.75.13-1.3.32-1.64.59-.34.26-.52.57-.52.92,0,.27.08.5.24.7.16.19.37.34.64.44.26.1.55.16.85.16Z"/>
    <path class="cls-2" d="m73.75,24.11c-.16,0-.3-.06-.42-.18-.12-.12-.18-.26-.18-.42v-8.74h-1.82c-.18,0-.32-.06-.43-.17s-.17-.26-.17-.43v-1.94c0-.18.06-.32.17-.43.11-.11.26-.17.43-.17h1.82v-.77c0-1.09.21-1.96.64-2.63.42-.66,1.03-1.14,1.81-1.44.78-.3,1.72-.44,2.81-.44h1.87c.18,0,.32.06.43.17.11.11.17.26.17.43v1.94c0,.18-.06.32-.17.43s-.26.17-.43.17h-1.68c-.54,0-.92.13-1.14.38-.22.26-.32.62-.32,1.1v.65h2.9c.18,0,.32.06.43.17.11.11.17.26.17.43v1.94c0,.18-.06.32-.17.43-.11.11-.26.17-.43.17h-2.9v8.74c0,.16-.06.3-.17.42-.11.12-.26.18-.43.18h-2.78Z"/>
    <path class="cls-2" d="m87.96,24.35c-1.89,0-3.39-.51-4.51-1.54-1.12-1.02-1.7-2.54-1.75-4.56v-.84c.05-1.26.33-2.35.85-3.25.52-.9,1.24-1.59,2.16-2.06.92-.47,2-.71,3.23-.71,1.41,0,2.57.28,3.49.84s1.61,1.32,2.08,2.28.7,2.06.7,3.29v.58c0,.18-.06.32-.17.43-.11.11-.26.17-.43.17h-7.68v.17c.02.46.1.89.25,1.27.15.38.38.69.67.91.3.22.66.34,1.09.34.32,0,.59-.05.8-.16.22-.1.4-.22.54-.36.14-.14.26-.25.34-.35.14-.18.26-.28.35-.32s.23-.06.42-.06h2.98c.16,0,.29.05.4.14.1.1.15.22.13.38-.02.27-.15.6-.41.98-.26.38-.63.76-1.12,1.14-.49.38-1.1.68-1.84.92-.74.24-1.59.36-2.57.36Zm-2.04-7.75h4.06v-.05c0-.53-.08-.98-.23-1.36-.15-.38-.38-.67-.7-.88-.31-.21-.68-.31-1.12-.31s-.78.1-1.08.31c-.3.21-.54.5-.7.88-.16.38-.24.83-.24,1.36v.05Z"/>
    <path class="cls-2" d="m108.1,24.35c-1.6,0-2.93-.23-3.98-.68-1.06-.46-1.86-1.05-2.4-1.79-.54-.74-.83-1.52-.86-2.35,0-.13.05-.24.16-.35.1-.1.23-.16.37-.16h3.02c.22,0,.4.04.52.12.12.08.23.18.32.31.13.24.31.47.54.7.23.22.54.4.92.54.38.14.85.2,1.39.2.93,0,1.63-.14,2.1-.43.47-.29.71-.68.71-1.18,0-.37-.13-.66-.38-.89-.26-.22-.67-.43-1.24-.61-.57-.18-1.32-.37-2.27-.56-1.22-.26-2.25-.59-3.11-1-.86-.41-1.51-.94-1.96-1.61-.45-.66-.67-1.49-.67-2.48s.28-1.85.83-2.62c.55-.77,1.32-1.37,2.32-1.8.99-.43,2.17-.65,3.53-.65,1.1,0,2.08.14,2.92.43.84.29,1.55.67,2.12,1.15.58.48,1.01.99,1.31,1.52.3.54.45,1.06.47,1.57,0,.13-.04.24-.13.35-.09.1-.21.16-.37.16h-3.17c-.18,0-.33-.03-.46-.1-.13-.06-.24-.17-.34-.31-.1-.35-.35-.66-.76-.92s-.94-.4-1.6-.4c-.7,0-1.25.12-1.64.37-.39.25-.59.63-.59,1.14,0,.32.11.6.32.84.22.24.58.45,1.08.62.5.18,1.2.36,2.08.55,1.46.27,2.63.61,3.53,1.02.9.41,1.56.94,1.98,1.58.42.65.64,1.46.64,2.44,0,1.09-.31,2.02-.94,2.81s-1.48,1.39-2.56,1.81c-1.08.42-2.33.64-3.76.64Z"/>
    <path class="cls-2" d="m118.08,24.11c-.18,0-.32-.06-.43-.18-.11-.12-.17-.26-.17-.42V7.67c0-.18.06-.32.17-.43.11-.11.26-.17.43-.17h3.07c.18,0,.32.06.43.17.11.11.17.26.17.43v5.35c.43-.5.96-.89,1.6-1.19.63-.3,1.36-.44,2.2-.44.93,0,1.75.21,2.48.62.73.42,1.3,1.02,1.72,1.82.42.8.62,1.79.62,2.98v6.7c0,.16-.06.3-.17.42s-.26.18-.43.18h-3.1c-.16,0-.3-.06-.42-.18-.12-.12-.18-.26-.18-.42v-6.55c0-.75-.18-1.33-.54-1.74-.36-.41-.88-.61-1.57-.61s-1.21.2-1.61.61c-.4.41-.6.99-.6,1.74v6.55c0,.16-.06.3-.17.42-.11.12-.26.18-.43.18h-3.07Z"/>
    <path class="cls-2" d="m133.66,9.83c-.18,0-.32-.06-.43-.17s-.17-.26-.17-.43v-2.16c0-.16.06-.3.17-.42.11-.12.26-.18.43-.18h2.88c.16,0,.3.06.42.18s.18.26.18.42v2.16c0,.18-.06.32-.18.43-.12.11-.26.17-.42.17h-2.88Zm.02,14.28c-.18,0-.32-.06-.43-.18-.11-.12-.17-.26-.17-.42v-11.28c0-.18.06-.32.17-.43.11-.11.26-.17.43-.17h2.83c.18,0,.32.06.43.17.11.11.17.26.17.43v11.28c0,.16-.06.3-.17.42-.11.12-.26.18-.43.18h-2.83Z"/>
    <path class="cls-2" d="m145.7,24.35c-1.89,0-3.39-.51-4.51-1.54-1.12-1.02-1.7-2.54-1.75-4.56v-.84c.05-1.26.33-2.35.85-3.25.52-.9,1.24-1.59,2.16-2.06.92-.47,2-.71,3.23-.71,1.41,0,2.57.28,3.49.84s1.61,1.32,2.08,2.28.7,2.06.7,3.29v.58c0,.18-.06.32-.17.43-.11.11-.26.17-.43.17h-7.68v.17c.02.46.1.89.25,1.27.15.38.38.69.67.91.3.22.66.34,1.09.34.32,0,.59-.05.8-.16.22-.1.4-.22.54-.36.14-.14.26-.25.34-.35.14-.18.26-.28.35-.32s.23-.06.42-.06h2.98c.16,0,.29.05.4.14.1.1.15.22.13.38-.02.27-.15.6-.41.98-.26.38-.63.76-1.12,1.14s-1.1.68-1.84.92c-.74.24-1.59.36-2.57.36Zm-2.04-7.75h4.06v-.05c0-.53-.08-.98-.23-1.36s-.38-.67-.7-.88c-.31-.21-.68-.31-1.12-.31s-.78.1-1.08.31c-.3.21-.54.5-.7.88s-.24.83-.24,1.36v.05Z"/>
    <path class="cls-2" d="m154.8,24.11c-.18,0-.32-.06-.43-.18-.11-.12-.17-.26-.17-.42V7.67c0-.18.06-.32.17-.43.11-.11.26-.17.43-.17h2.83c.18,0,.32.06.43.17.11.11.17.26.17.43v15.84c0,.16-.06.3-.17.42-.11.12-.26.18-.43.18h-2.83Z"/>
    <path class="cls-2" d="m165.72,24.35c-.77,0-1.46-.12-2.08-.37-.62-.25-1.14-.62-1.58-1.1-.44-.49-.78-1.08-1.02-1.78-.24-.7-.38-1.49-.41-2.39-.02-.32-.02-.6-.02-.85s0-.53.02-.85c.03-.85.17-1.62.41-2.32.24-.7.58-1.29,1.01-1.78.43-.49.96-.86,1.58-1.13.62-.26,1.32-.4,2.09-.4s1.49.13,2.06.4c.58.26,1.06.6,1.46,1.02v-5.14c0-.18.06-.32.17-.43.11-.11.26-.17.43-.17h2.93c.16,0,.3.06.42.17.12.11.18.26.18.43v15.84c0,.16-.06.3-.18.42s-.26.18-.42.18h-2.71c-.18,0-.32-.06-.43-.18-.11-.12-.17-.26-.17-.42v-.77c-.38.46-.88.85-1.49,1.15-.61.3-1.36.46-2.26.46Zm1.32-3.22c.53,0,.95-.12,1.26-.35.31-.23.54-.53.7-.9s.24-.77.25-1.2c.02-.32.02-.62.02-.91s0-.58-.02-.89c-.02-.4-.1-.77-.26-1.12-.16-.34-.4-.62-.72-.84-.32-.22-.73-.32-1.22-.32-.53,0-.95.11-1.26.34-.31.22-.54.53-.67.91-.14.38-.22.81-.25,1.27-.05.5-.05.99,0,1.49.03.46.12.89.25,1.27.14.38.36.69.67.91.31.22.73.34,1.26.34Z"/>
  </g>
  <path class="cls-1" d="m31.57,4.14c-1.78-1.01-3.65-1.85-5.6-2.5-.21-.07-.42.1-.41.32.04.85.04,1.71,0,2.56,0,.14.07.26.2.31.88.32,1.74.69,2.58,1.09.12.06.19.19.18.32-.1.93-.24,1.86-.42,2.76-.03.13.03.27.15.33.75.41,1.48.87,2.18,1.35.18.13.44.03.49-.18.47-1.99.74-4.03.81-6.07,0-.12-.06-.23-.16-.29ZM9.34.9c-.09.85-.13,1.7-.12,2.56,0,.2.19.34.39.3,4.11-.91,8.42-.91,12.53,0,.2.04.38-.1.39-.3,0-.85-.03-1.71-.12-2.56-.01-.14-.12-.25-.26-.28-4.12-.82-8.42-.82-12.54,0-.14.03-.24.14-.26.28ZM0,4.43c.07,2.05.34,4.08.81,6.07.05.22.31.31.49.18.7-.49,1.43-.94,2.18-1.35.12-.07.18-.2.15-.33-.18-.91-.33-1.83-.42-2.76-.01-.13.06-.26.18-.32.84-.4,1.7-.77,2.58-1.09.13-.05.21-.17.2-.31-.04-.85-.04-1.71,0-2.56.01-.22-.2-.39-.41-.32C3.82,2.29,1.94,3.13.16,4.14c-.1.06-.17.17-.16.29Zm13.99,17.9c.54.52,1.09,1.01,1.67,1.48.12.09.29.09.4,0,1.36-1.1,2.6-2.33,3.71-3.68.14-.17.06-.44-.15-.51-.92-.27-1.89-.45-2.88-.51-.1,0-.19.03-.25.1-.13.14-.26.28-.4.42-.12.13-.33.13-.45,0-.14-.14-.27-.28-.4-.42-.06-.07-.16-.11-.25-.1-.99.06-1.96.24-2.88.51-.21.06-.29.33-.15.51.64.77,1.32,1.51,2.04,2.2Zm-4.48-14.76c-.92.24-1.83.52-2.71.85-.14.05-.23.21-.2.36.56,2.87,1.61,5.63,3.1,8.14.08.13.24.19.38.13,3.66-1.39,7.9-1.39,11.56,0,.14.05.3,0,.38-.13.42-.71.81-1.45,1.17-2.2.08-.16,0-.37-.17-.43-3.59-1.43-7.66-1.74-11.43-.89-.15.03-.29-.04-.36-.17-.35-.76-.65-1.54-.91-2.33-.06-.18.05-.37.23-.41,4.47-1.08,9.29-.76,13.56.93.17.07.36-.02.42-.2.24-.8.44-1.6.59-2.42.03-.15-.06-.31-.2-.36-4.87-1.85-10.37-2.15-15.41-.85Zm6.17,19.44c-5.29-3.56-9.02-8.46-11.05-14.36-.07-.19-.29-.27-.46-.17-.73.44-1.44.93-2.12,1.46-.11.09-.15.24-.1.37,2.54,6.84,7.41,12.64,13.75,16.35.1.06.23.06.33,0,6.33-3.7,11.2-9.5,13.75-16.35.05-.13,0-.28-.1-.37-.68-.52-1.38-1.01-2.12-1.46-.17-.1-.39-.02-.46.17-2.02,5.83-5.92,10.88-11.05,14.36-.11.07-.25.07-.36,0Z"/>
</svg>